<svg width="249" height="273" viewBox="0 0 249 273" fill="none" xmlns="http://www.w3.org/2000/svg">
<path d="M168.186 242.417C182.455 225.54 173.584 194.578 148.373 173.263C123.161 151.947 91.1555 148.349 76.8864 165.226C62.6172 182.103 71.4879 213.065 96.6995 234.381C121.911 255.696 153.917 259.294 168.186 242.417Z" fill="#FFB03C"/>
<path d="M94.872 191.07C122.54 183.116 134.945 141.802 122.581 98.793C110.216 55.7838 77.764 27.3659 50.0964 35.3198C22.4289 43.2737 10.0233 84.5875 22.3878 127.597C34.7522 170.606 67.2045 199.024 94.872 191.07Z" fill="#F4C6DA"/>
<path opacity="0.8" d="M235.359 195.232C242.388 166.332 208.966 133.39 160.709 121.655C112.453 109.92 67.6365 123.835 60.6084 152.736C53.5802 181.637 87.0022 214.579 135.258 226.314C183.515 238.049 228.331 224.133 235.359 195.232Z" fill="#C490BA"/>
<path opacity="0.91" d="M177.384 141.239C203.989 95.1601 203.143 44.8655 175.496 28.9028C147.849 12.9402 103.869 37.3542 77.2646 83.433C50.6602 129.512 51.5056 179.807 79.1529 195.769C106.8 211.732 150.78 187.318 177.384 141.239Z" fill="#BE5F99"/>
<path d="M1.47009 161.891C4.42197 161.642 7.12783 162.14 9.83372 162.389C12.5396 162.887 15.4915 163.635 18.1973 164.382C23.6091 166.125 28.7749 168.616 33.9406 171.605C38.8604 174.593 43.5342 178.08 47.7161 181.816C51.8979 185.801 55.8338 190.035 59.5236 194.519C62.9675 199.002 66.1653 203.983 68.8712 208.964C69.6091 210.21 70.1011 211.455 70.8391 212.7L71.8231 214.693L72.561 216.685L74.283 220.67C74.7749 221.916 75.2669 223.41 75.7588 224.655C77.7268 230.135 78.9567 235.614 80.1867 241.094C80.6787 243.833 80.9247 246.822 81.1706 249.562C81.4166 252.302 81.4166 255.29 81.4166 258.03C79.9407 255.539 78.4647 253.049 77.2348 250.807C76.4968 249.562 75.7589 248.317 75.2669 247.32C74.5289 246.075 74.0369 244.83 73.299 243.833C70.5931 239.101 67.8872 234.369 65.1813 229.886C64.4434 228.64 63.9514 227.644 63.2134 226.399L60.9995 223.161L60.0155 221.418L59.0316 219.674C58.2936 218.678 57.5557 217.433 56.8177 216.436C53.8658 212.202 50.9139 207.968 47.7161 203.983C44.5182 199.998 41.3203 196.013 37.8765 192.277C34.4326 188.541 30.7428 184.805 27.053 181.318C23.1171 177.831 19.1813 174.344 14.9995 171.107C10.8177 168.118 6.38988 164.88 1.47009 161.891Z" fill="#D35B9A"/>
</svg>
