<svg width="24" height="16" viewBox="0 0 24 16" fill="none" xmlns="http://www.w3.org/2000/svg">
<path d="M22.7333 6.66699H1.26667C0.567106 6.66699 0 7.2341 0 7.93366V8.06699C0 8.76655 0.567106 9.33366 1.26667 9.33366H22.7333C23.4329 9.33366 24 8.76655 24 8.06699V7.93366C24 7.2341 23.4329 6.66699 22.7333 6.66699Z" fill="black"/>
<path d="M22.7333 13.333H1.26667C0.567106 13.333 0 13.9001 0 14.5997V14.733C0 15.4326 0.567106 15.9997 1.26667 15.9997H22.7333C23.4329 15.9997 24 15.4326 24 14.733V14.5997C24 13.9001 23.4329 13.333 22.7333 13.333Z" fill="black"/>
<path d="M22.7333 0H1.26667C0.567106 0 0 0.567106 0 1.26667V1.4C0 2.09956 0.567106 2.66667 1.26667 2.66667H22.7333C23.4329 2.66667 24 2.09956 24 1.4V1.26667C24 0.567106 23.4329 0 22.7333 0Z" fill="black"/>
</svg>
